<svg width="71" height="104" viewBox="0 0 71 104" fill="none" xmlns="http://www.w3.org/2000/svg">
<path d="M12.7483 1.84256C10.1722 2.52954 9.35611 15.1976 11.005 16.9532C12.654 18.7088 15.1225 16.9532 17.56 16.9532C19.9976 16.9532 12.7483 19.5191 12.7483 22.267C12.7483 25.0149 22.9999 35.5 22.9999 35.5C22.9999 35.5 25.736 40.8432 29.4999 35.5C33.2638 30.1568 38.271 25.6255 38.271 22.267C38.271 18.9084 30.4324 16.9532 33.085 16.9532H39.9851C41.9208 16.9532 42.0449 6.19342 39.1313 1.84256C36.2177 -2.5083 30.1439 11.2753 28.3516 13.9469C26.5593 16.6185 23.2107 15.2445 22.1401 13.9469C21.0695 12.6493 15.3245 1.15558 12.7483 1.84256Z" fill="white" stroke="white"/>
<path d="M15.49 73.8198C11.934 56.111 16.1636 29.0927 19.3181 34.2069C22.4726 39.3211 25.7272 40.5395 27.6868 40.1578C26.5158 43.9489 25.8939 49.6258 27.6868 53.5199C26.8503 45.327 32.486 25.3208 49.5 26.5C72.5657 28.0988 62.1711 53.9737 62.1711 49.5465C62.1711 45.1193 53.5157 38.7868 51.5083 43.5193C48.2742 51.1439 53.6625 52.374 59.4467 55.6833C65.3973 59.0879 79.8792 71.7588 59.4467 92.3986C32.3791 119.741 1.00001 87.1013 1 73.8198C0.999988 56.1486 12.7746 46.4933 12.7746 46.4933C12.0099 53.2613 9.97861 78.3921 18.0799 85.0404C26.8459 92.2342 36.505 90.9272 40.826 89.6202C46.75 87.8284 49.3976 85.6106 52.1535 80.3842C46.9942 90.1683 19.8374 95.47 15.49 73.8198Z" fill="white" stroke="white"/>
</svg>
